<svg width="1526" height="337" viewBox="0 0 1526 337" fill="none" xmlns="http://www.w3.org/2000/svg">
<mask id="mask0_8_9" style="mask-type:alpha" maskUnits="userSpaceOnUse" x="0" y="0" width="1526" height="337">
<rect width="1526" height="337" fill="#D9D9D9"/>
</mask>
<g mask="url(#mask0_8_9)">
<path d="M443 95.4664C307.5 -11.1566 251 -26.3884 0 39.3855V1081.38L1526 1107V161.24C1505.5 161.24 1448.3 179.38 1383.5 251.939C1302.5 342.638 1130 296.25 1010.5 296.25C891 296.25 918 193.089 753 161.24C588 129.392 578.5 202.089 443 95.4664Z" fill="#FFCDB2"/>
<path d="M-10 117.64C218.634 52.0329 281.162 43.0181 412.901 117.64C544.64 192.263 564.21 86.0887 702.154 156.204C840.098 226.319 923.628 336.499 999.521 284.915C1075.41 233.33 1253.93 201.278 1293.07 262.378C1324.38 311.258 1461.4 332.493 1526 337" stroke="black"/>
</g>
</svg>
